# xmcd
#
# Track frame offsets:
#	150
#	32480
#	48005
#	57625
#	67185
#	78710
#	92957
#	105232
#	115660
#	126877
#	176852
#
# Disc length: 2573 seconds
#
# Revision: 16
# Processed by: cddbd v1.5.2PL0 Copyright (c) Steve Scherf et al.
# Submitted via: audiograbber 1.83.01
#
DISCID=950a0b0b
DTITLE=Creedence Clearwater Revival - Cosmo's factory
DYEAR=1970
DGENRE=Rock
TTITLE0=Ramble tamble
TTITLE1=Before you accuse me
TTITLE2=Travelin' band
TTITLE3=Ooby dooby
TTITLE4=Lookin' out my back door
TTITLE5=Run through the jungle
TTITLE6=Up around the bend
TTITLE7=My baby left me
TTITLE8=Who'll stop the rain
TTITLE9=I heard it through the grapevine
TTITLE10=Long as I can see the light
EXTD=
EXTT0=
EXTT1=(McDaniels)
EXTT2=
EXTT3=(Moore-Penner)
EXTT4=
EXTT5=
EXTT6=
EXTT7=(Arthur Crudup)
EXTT8=
EXTT9=(Whitfield-Strong)
EXTT10=
PLAYORDER=
